<?xml version="1.0" encoding="UTF-8" standalone="no"?>
<svg
   xmlns:serif="http://www.serif.com/"
   xmlns:dc="http://purl.org/dc/elements/1.1/"
   xmlns:cc="http://creativecommons.org/ns#"
   xmlns:rdf="http://www.w3.org/1999/02/22-rdf-syntax-ns#"
   xmlns:svg="http://www.w3.org/2000/svg"
   xmlns="http://www.w3.org/2000/svg"
   xmlns:sodipodi="http://sodipodi.sourceforge.net/DTD/sodipodi-0.dtd"
   xmlns:inkscape="http://www.inkscape.org/namespaces/inkscape"
   width="100%"
   height="100%"
   viewBox="0 0 308 57"
   version="1.1"
   xml:space="preserve"
   style="fill-rule:evenodd;clip-rule:evenodd;stroke-linejoin:round;stroke-miterlimit:2;"
   id="svg30"
   sodipodi:docname="full-contact-logo--white.svg"
   inkscape:version="0.92.4 5da689c313, 2019-01-14"><metadata
     id="metadata36"><rdf:RDF><cc:Work
         rdf:about=""><dc:format>image/svg+xml</dc:format><dc:type
           rdf:resource="http://purl.org/dc/dcmitype/StillImage" /></cc:Work></rdf:RDF></metadata><defs
     id="defs34" /><sodipodi:namedview
     pagecolor="#ffffff"
     bordercolor="#666666"
     borderopacity="1"
     objecttolerance="10"
     gridtolerance="10"
     guidetolerance="10"
     inkscape:pageopacity="0"
     inkscape:pageshadow="2"
     inkscape:window-width="1122"
     inkscape:window-height="604"
     id="namedview32"
     showgrid="false"
     inkscape:zoom="3.2467532"
     inkscape:cx="59.805489"
     inkscape:cy="29.323533"
     inkscape:window-x="0"
     inkscape:window-y="0"
     inkscape:window-maximized="0"
     inkscape:current-layer="Artboard11" /><rect
     id="Artboard1"
     x="0"
     y="0"
     width="307.44"
     height="56.16"
     style="fill:none;" /><g
     id="Artboard11"
     serif:id="Artboard1"><path
       d="M28.05,27.286c3.019,0 5.476,-2.456 5.476,-5.475c0,-3.019 -2.457,-5.475 -5.476,-5.475c-3.02,0 -5.476,2.456 -5.476,5.475c0,3.019 2.456,5.475 5.476,5.475"
       style="fill:#ffffff;fill-rule:nonzero"
       id="path3" /><path
       d="M39.295,42.903l-22.489,0c-0.39,0 -0.705,-0.325 -0.686,-0.714c0.083,-1.654 0.455,-3.269 1.083,-4.776c0.108,-0.258 0.358,-0.427 0.636,-0.427l13.589,0c1.91,0 3.459,-1.548 3.459,-3.458l0,-0.341c0,-0.484 0.585,-0.726 0.927,-0.384c1.22,1.221 2.195,2.642 2.896,4.183c0.741,1.628 1.178,3.392 1.27,5.203c0.019,0.389 -0.296,0.714 -0.686,0.714m-11.244,-31.929c5.975,0 10.838,4.862 10.838,10.838c0,5.976 -4.863,10.838 -10.838,10.838c-5.977,0 -10.838,-4.862 -10.838,-10.838c0,-5.976 4.861,-10.838 10.838,-10.838m0,-10.897c-15.472,0 -28.014,12.542 -28.014,28.014c0,15.471 12.542,28.013 28.014,28.013c15.472,0 28.014,-12.542 28.014,-28.013c0,-15.472 -12.542,-28.014 -28.014,-28.014"
       style="fill:#ffffff;fill-rule:nonzero;fill-opacity:1"
       id="path5" /><path
       d="M70.906,42.54l0,-30.938c0,-0.368 0.229,-0.598 0.597,-0.598l19.738,0c0.367,0 0.597,0.23 0.597,0.598l0,2.799c0,0.368 -0.184,0.597 -0.597,0.597l-16.296,0l0,10.558l14.231,0c0.367,0 0.596,0.229 0.596,0.596l0,2.709c0,0.321 -0.229,0.596 -0.596,0.596l-14.231,0l0,13.083c0,0.367 -0.229,0.597 -0.597,0.597l-2.845,0c-0.413,0 -0.597,-0.23 -0.597,-0.597"
       style="fill:#fff;fill-rule:nonzero;"
       id="path7" /><path
       d="M98.647,20.185c0.413,0 0.643,0.23 0.643,0.597l0,11.43c0,4.452 1.836,7.528 6.058,7.528c3.903,0 6.702,-3.673 6.702,-7.39l0,-11.568c0,-0.367 0.23,-0.597 0.597,-0.597l2.846,0c0.367,0 0.596,0.23 0.596,0.597l0,21.758c0,0.413 -0.229,0.597 -0.596,0.597l-2.846,0c-0.367,0 -0.597,-0.184 -0.597,-0.597l0,-3.994c-1.193,2.296 -3.947,5.05 -7.941,5.05c-6.013,0 -8.859,-4.178 -8.859,-10.696l0,-12.118c0,-0.367 0.229,-0.597 0.596,-0.597l2.801,0Z"
       style="fill:#fff;fill-rule:nonzero;"
       id="path9" /><path
       d="M122.487,42.54l0,-30.939c0,-0.413 0.185,-0.597 0.598,-0.597l2.799,0c0.414,0 0.597,0.184 0.597,0.597l0,30.939c0,0.413 -0.183,0.597 -0.597,0.597l-2.799,0c-0.413,0 -0.598,-0.184 -0.598,-0.597"
       style="fill:#fff;fill-rule:nonzero;"
       id="path11" /><path
       d="M132.878,42.54l0,-30.939c0,-0.413 0.184,-0.597 0.597,-0.597l2.799,0c0.414,0 0.597,0.184 0.597,0.597l0,30.939c0,0.413 -0.183,0.597 -0.597,0.597l-2.799,0c-0.413,0 -0.597,-0.184 -0.597,-0.597"
       style="fill:#fff;fill-rule:nonzero;"
       id="path13" /><path
       d="M181.473,37.169c2.938,0 5.232,-2.387 5.232,-5.509c0,-3.121 -2.294,-5.508 -5.232,-5.508c-2.983,0 -5.233,2.387 -5.233,5.508c0,3.122 2.25,5.509 5.233,5.509m0,-17.443c6.61,0 11.797,5.324 11.797,11.934c0,6.611 -5.187,11.935 -11.797,11.935c-6.61,0 -11.843,-5.324 -11.843,-11.935c0,-6.61 5.233,-11.934 11.843,-11.934"
       style="fill:#fff;fill-rule:nonzero;"
       id="path15" /><path
       d="M213.406,43.137c-0.551,-0.001 -0.827,-0.322 -0.827,-0.782l0,-10.97c0,-2.984 -1.331,-5.233 -4.315,-5.233c-2.616,0 -4.635,2.387 -4.635,4.728l0,11.475c0,0.46 -0.276,0.781 -0.781,0.781l-5.187,0c-0.505,0 -0.78,-0.321 -0.78,-0.781l0,-21.39c0,-0.505 0.275,-0.781 0.78,-0.781l5.187,0c0.505,0 0.781,0.276 0.781,0.781l0,2.57c1.377,-1.882 3.717,-3.81 7.068,-3.81c5.555,0 8.63,3.765 8.63,10.328l0,12.302c0,0.46 -0.275,0.781 -0.78,0.781l-5.141,0Z"
       style="fill:#fff;fill-rule:nonzero;"
       id="path17" /><path
       d="M239.127,41.989c-2.157,1.24 -4.039,1.607 -6.06,1.607c-4.865,0 -7.619,-2.754 -7.619,-7.62l0,-9.639l-2.066,0c-0.459,0 -0.78,-0.23 -0.78,-0.781l0,-4.59c0,-0.551 0.321,-0.781 0.78,-0.781l2.066,0l0,-6.013c0,-0.459 0.23,-0.78 0.781,-0.78l5.14,0c0.597,0 0.826,0.367 0.826,0.78l0,6.013l5.234,0c0.505,0 0.826,0.322 0.826,0.781l0,4.59c0,0.459 -0.275,0.781 -0.78,0.781l-5.28,0l0,8.721c0,1.561 0.918,2.112 2.113,2.112c0.918,0 1.56,-0.23 2.34,-0.598c0.414,-0.229 0.643,-0.137 0.827,0.23l1.973,4.178c0.138,0.412 0.138,0.734 -0.321,1.009"
       style="fill:#fff;fill-rule:nonzero;"
       id="path19" /><path
       d="M257.839,33.222c-4.774,-0.001 -8.354,0.596 -8.354,3.35c0,1.748 2.203,2.014 3.718,2.014c2.938,0 5.279,-1.62 5.279,-3.81l0,-1.555l-0.643,0Zm-4.36,-13.496c9.455,0 11.659,5.005 11.659,11.477l0,11.107c0,0.552 -0.276,0.827 -0.826,0.827l-4.775,0c-0.596,0 -0.826,-0.321 -0.826,-0.827l0,-1.468c-2.065,2.02 -5.875,2.708 -8.354,2.754c-3.718,0.046 -7.988,-1.561 -7.942,-6.793c0.093,-7.253 10.053,-7.483 14.46,-7.483l1.469,0.046l0,-0.229c0,-1.378 -0.734,-3.581 -5.417,-3.581c-3.029,0 -6.518,1.148 -6.518,1.148c-0.413,0.138 -0.872,0.046 -1.055,-0.459l-1.331,-3.443c-0.184,-0.551 -0.184,-0.964 0.367,-1.194c0,0 3.809,-1.882 9.089,-1.882"
       style="fill:#fff;fill-rule:nonzero;"
       id="path21" /><path
       d="M287.37,41.53c-1.744,1.148 -4.177,2.066 -6.931,2.066c-6.61,0 -11.842,-5.325 -11.842,-11.935c0,-6.61 5.232,-11.935 11.842,-11.935c2.938,0 5.325,1.102 6.885,2.158c0.413,0.229 0.505,0.734 0.23,1.102l-2.8,3.947c-0.276,0.367 -0.597,0.505 -1.102,0.184c-1.331,-0.826 -2.478,-0.964 -3.213,-0.964c-2.984,0 -5.233,2.387 -5.233,5.508c0,3.121 2.249,5.509 5.233,5.509c1.194,0 2.341,-0.322 3.351,-0.919c0.413,-0.183 0.688,-0.183 1.01,0.23l2.799,3.947c0.322,0.506 0.184,0.827 -0.229,1.102"
       style="fill:#fff;fill-rule:nonzero;"
       id="path23" /><path
       d="M306.955,41.989c-2.157,1.24 -4.039,1.607 -6.059,1.607c-4.866,0 -7.62,-2.754 -7.62,-7.62l0,-9.639l-2.065,0c-0.459,0 -0.78,-0.23 -0.78,-0.781l0,-4.59c0,-0.551 0.321,-0.781 0.78,-0.781l2.065,0l0,-6.013c0,-0.459 0.23,-0.78 0.781,-0.78l5.14,0c0.597,0 0.826,0.367 0.826,0.78l0,6.013l5.234,0c0.505,0 0.826,0.322 0.826,0.781l0,4.59c0,0.459 -0.275,0.781 -0.78,0.781l-5.28,0l0,8.721c0,1.561 0.919,2.112 2.113,2.112c0.918,0 1.56,-0.23 2.34,-0.598c0.414,-0.229 0.643,-0.137 0.827,0.23l1.973,4.178c0.138,0.412 0.138,0.734 -0.321,1.009"
       style="fill:#fff;fill-rule:nonzero;"
       id="path25" /><path
       d="M158.919,36.914c-5.526,0 -9.986,-4.559 -9.826,-10.121c0.145,-5.071 4.223,-9.256 9.289,-9.526c2.308,-0.123 4.454,0.553 6.187,1.774c0.482,0.34 1.142,0.262 1.53,-0.182l2.954,-3.378c0.444,-0.508 0.356,-1.283 -0.183,-1.689c-2.911,-2.186 -6.561,-3.44 -10.512,-3.309c-8.998,0.297 -16.18,7.86 -16.034,16.862c0.148,9.039 7.521,16.321 16.595,16.321c3.625,0 6.978,-1.164 9.707,-3.137c0.547,-0.395 0.649,-1.169 0.215,-1.685l-2.878,-3.416c-0.381,-0.451 -1.039,-0.541 -1.527,-0.209c-1.574,1.069 -3.472,1.695 -5.517,1.695"
       style="fill:#fff;fill-rule:nonzero;"
       id="path27" /></g></svg>